<?xml version="1.0" standalone="no"?>
<!DOCTYPE svg PUBLIC "-//W3C//DTD SVG 20010904//EN"
 "http://www.w3.org/TR/2001/REC-SVG-20010904/DTD/svg10.dtd">
<svg version="1.0" xmlns="http://www.w3.org/2000/svg"
 width="300.000000pt" height="350.000000pt" viewBox="0 0 300.000000 350.000000"
 preserveAspectRatio="xMidYMid meet">
<metadata>
Created by potrace 1.10, written by Peter Selinger 2001-2011
</metadata>
<g transform="translate(0.000000,350.000000) scale(0.100000,-0.100000)"
fill="#000000" stroke="none">
<path d="M1574 2836 c-32 -32 -34 -39 -34 -97 l0 -64 -189 3 c-127 3 -196 0
-210 -7 -18 -10 -21 -21 -21 -83 0 -78 16 -85 24 -10 7 72 7 72 206 72 159 0
179 2 193 18 10 10 17 28 17 40 0 12 5 22 11 22 5 0 8 -4 5 -8 -3 -5 4 -23 14
-40 l20 -32 164 0 c184 0 196 4 196 66 0 21 4 33 10 29 6 -3 10 -17 10 -31 0
-13 9 -33 20 -44 18 -18 33 -20 194 -20 96 0 181 -3 190 -6 13 -5 16 -26 16
-125 0 -108 -2 -119 -20 -129 -13 -7 -114 -11 -277 -10 -142 0 -269 -2 -283
-4 -14 -2 -31 -4 -38 -5 -7 0 -10 -5 -7 -11 4 -6 125 -10 331 -10 l324 0 0
149 c0 126 -3 152 -16 166 -15 14 -41 16 -210 13 l-194 -3 0 53 c0 29 -7 66
-15 82 -27 53 -57 60 -236 60 l-161 0 -34 -34z m391 -23 c25 -17 11 -16 -39 1
-22 8 -33 15 -25 18 16 6 36 0 64 -19z m-320 10 c-11 -3 -30 -14 -41 -25 -13
-12 -24 -15 -28 -9 -9 14 34 41 64 40 20 -1 21 -2 5 -6z m188 0 c-29 -2 -78
-2 -110 0 -32 2 -8 3 52 3 61 0 87 -1 58 -3z m101 -39 c10 -10 16 -33 16 -62
l0 -47 -170 0 -170 0 0 51 c0 27 5 55 12 62 8 8 57 12 154 12 116 0 145 -3
158 -16z"/>
<path d="M713 2502 c-16 -10 -20 -869 -4 -885 5 -5 53 -9 107 -8 l97 2 -6
-105 c-5 -96 0 -125 18 -96 3 5 62 53 130 105 l123 95 290 0 c255 0 291 2 296
16 3 9 6 206 6 438 0 315 -3 425 -12 434 -9 9 -139 12 -523 12 -280 0 -516 -4
-522 -8z m407 -83 l0 -70 28 2 c15 1 158 1 318 1 l291 -2 -5 -30 -4 -30 -314
0 -314 0 0 -244 c0 -209 2 -247 16 -260 13 -14 57 -16 322 -16 238 0 303 -3
294 -12 -7 -7 -12 -30 -12 -53 0 -73 12 -70 -292 -73 -190 -1 -281 -6 -298
-14 -27 -14 -127 -84 -148 -105 -20 -20 -53 -35 -60 -29 -3 4 -7 31 -8 62 -3
77 -12 84 -104 84 -116 0 -109 -28 -109 432 -1 365 0 385 18 400 16 13 47 16
182 18 90 0 165 3 168 5 2 3 10 5 18 5 10 0 13 -18 13 -71z m619 40 c12 -22
12 -31 2 -58 l-13 -31 -289 0 c-318 0 -306 -3 -303 64 2 55 12 57 313 54 l275
-3 15 -26z m-8 -190 c18 -11 27 -426 9 -458 -10 -20 -18 -21 -301 -21 -284 0
-290 0 -297 21 -5 11 -7 35 -5 52 1 18 3 116 3 219 0 185 1 187 23 191 41 8
554 5 568 -4z"/>
<path d="M968 2105 c-42 -56 -1 -134 63 -121 39 8 58 31 59 74 0 66 -85 99
-122 47z m92 -15 c24 -24 24 -29 4 -58 -23 -33 -75 -27 -88 10 -8 22 -6 32 9
48 23 25 49 26 75 0z"/>
<path d="M1186 2105 c-32 -29 -34 -67 -4 -95 45 -42 118 -15 118 45 0 24 -7
39 -26 54 -35 27 -55 26 -88 -4z m75 -5 c29 -16 25 -65 -6 -86 -23 -15 -27
-15 -50 0 -29 19 -32 51 -8 78 18 20 36 23 64 8z"/>
<path d="M1390 2103 c-23 -29 -25 -45 -9 -76 16 -29 28 -37 62 -37 53 0 85 61
54 104 -7 9 -29 21 -50 26 -33 7 -39 5 -57 -17z m84 -9 c24 -24 20 -61 -9 -80
-23 -15 -27 -15 -50 0 -42 28 -24 96 25 96 10 0 26 -7 34 -16z"/>
<path d="M1794 2279 c12 -8 113 -11 303 -10 205 1 289 -1 299 -10 19 -16 21
-431 2 -447 -7 -5 -48 -12 -91 -14 -96 -4 -107 -15 -107 -100 0 -62 -5 -68
-38 -40 -12 9 -38 28 -57 42 -20 14 -57 41 -83 60 -39 29 -57 35 -109 38 -72
5 -136 -5 -128 -19 4 -5 45 -9 93 -9 l87 0 129 -100 c72 -55 131 -100 133
-100 2 0 3 46 2 102 l-2 102 90 -3 c131 -4 123 -21 123 275 l0 244 -332 0
c-245 -1 -328 -3 -314 -11z"/>
<path d="M1200 1185 l0 -210 42 1 c38 1 43 4 40 24 l-4 22 29 -21 c92 -69 213
1 213 123 0 64 -25 113 -71 138 -50 27 -101 23 -139 -9 l-32 -27 3 83 4 84
-43 1 -42 1 0 -210z m65 48 c11 -14 10 -23 -1 -45 -8 -16 -17 -28 -19 -28 -3
0 -5 20 -5 45 0 49 6 55 25 28z m145 -43 c28 -28 28 -100 0 -125 -26 -23 -74
-24 -99 -1 -36 32 -32 104 6 134 25 18 70 15 93 -8z m-141 -161 c-18 -11 -29
-2 -29 25 0 35 13 40 28 10 11 -22 12 -28 1 -35z"/>
<path d="M2154 1385 c-3 -6 -3 -100 -2 -209 l3 -199 43 -1 42 -1 0 210 0 210
-41 0 c-23 0 -43 -5 -45 -10z"/>
<path d="M2330 1185 l0 -210 42 1 43 2 -2 39 c-2 30 2 45 20 61 l22 21 34 -59
c33 -56 36 -58 80 -62 25 -3 49 -3 53 -1 4 2 -20 45 -52 95 l-59 91 54 55 c30
30 55 56 55 58 0 2 -21 4 -47 4 -46 0 -50 -2 -105 -62 l-56 -63 1 119 2 118
-43 2 -42 1 0 -210z m91 -35 c11 0 29 4 39 10 15 8 20 5 29 -22 14 -39 9 -44
-21 -24 -22 14 -25 13 -57 -14 -18 -17 -35 -30 -37 -30 -2 0 -4 28 -4 62 0 59
1 61 16 40 8 -12 24 -22 35 -22z"/>
<path d="M540 1329 l0 -41 67 4 68 3 -4 -110 c-1 -60 -8 -116 -14 -123 -14
-18 -64 -8 -92 18 -20 19 -20 19 -42 -15 -21 -31 -21 -34 -5 -49 33 -29 94
-48 135 -42 95 15 105 37 109 239 l3 157 -112 0 -113 0 0 -41z"/>
<path d="M1590 1304 c0 -41 -2 -45 -20 -39 -17 6 -20 2 -20 -30 0 -32 3 -36
20 -30 19 6 20 2 20 -83 0 -74 3 -94 20 -115 25 -32 66 -41 118 -27 40 10 40
10 30 44 -9 29 -14 33 -32 27 -40 -15 -46 -4 -46 81 l0 80 40 -7 40 -7 0 37 0
37 -40 -7 -40 -7 0 46 0 46 -45 0 -45 0 0 -46z m70 -53 c7 -15 5 -25 -9 -43
l-19 -23 -12 27 c-22 47 15 84 40 39z"/>
<path d="M905 1266 c-66 -29 -100 -99 -84 -173 16 -78 71 -117 162 -117 63 1
93 17 131 68 30 39 29 130 -2 173 -41 58 -136 80 -207 49z m122 -78 c32 -30
32 -90 -2 -123 -13 -14 -31 -25 -39 -25 -30 0 -65 23 -76 51 -35 82 54 156
117 97z"/>
<path d="M1855 1265 c-22 -8 -41 -15 -42 -15 -1 0 4 -14 10 -31 9 -24 16 -29
32 -23 42 14 106 16 120 4 31 -26 17 -40 -40 -40 -108 0 -160 -48 -135 -123
20 -63 120 -87 171 -41 17 15 19 15 19 2 0 -11 12 -17 41 -20 22 -2 42 -2 45
1 2 2 4 50 4 105 0 153 -30 196 -135 195 -27 0 -68 -6 -90 -14z m180 -146 c-7
-20 -8 -21 -17 -5 -5 9 -7 24 -4 33 10 26 29 -1 21 -28z m-47 -36 c-6 -53 -98
-70 -114 -21 -9 30 19 48 74 48 41 0 43 -1 40 -27z"/>
</g>
</svg>
